#!OML:ASF F:\VICON\USERDATA\INSTALL\rory3\rory3.ASF
:FULLY-SPECIFIED
:DEGREES
1
root -0.919540999999999 17.2067 -32.30619999999996 6.0100900000000035 -2.1114799999999923 -6.517110000000008
lfemur -25.867799999999974 7.1891499999999855 -10.752500000000007
ltibia 104.04900000000008
lfoot 7.526900000000015 -13.787399999999986
ltoes 0.3751349999999807
rfemur -22.146600000000007 3.9586899999999963 34.871500000000005
rtibia 48.91779999999997
rfoot -22.27260000000006 -18.484600000000018
rtoes -5.583340000000003
lowerback nan 0.362027999999999 3.1754999999999978
upperback 0.4907119999999967 1.4043400000000001 3.1136000000000017
thorax -9.2274 0.6066179999999999 1.2207300000000008
lowerneck -21.859900000000003 -3.158840000000001 -1.3040799999999986
upperneck 12.282200000000003 -4.181429999999999 1.76461
head 7.38848 -1.8849400000000003 0.27283199999999985
lclavicle 6.460500000000056e-16 -1.7890600000000082e-15
lhumerus -52.4405 -11.167900000000001 98.1635
lradius 97.59629999999999
lwrist 29.294700000000002
lhand -25.8077 2.8378000000000014
lfingers nan
lthumb 0.7315109999999989 32.8163
rclavicle 6.460500000000056e-16 -1.7890600000000082e-15
rhumerus -37.91549999999998 10.290999999999999 -93.6859
rradius 101.15800000000002
rwrist -7.893620000000003
rhand -21.343200000000003 nan
rfingers nan
rthumb 5.042970000000006 9.8436
2
root -0.9318050000000005 17.3244 -31.331799999999973 5.5719699999999985 -0.48884600000000267 -6.663809999999998
lfemur -30.741700000000005 6.464120000000015 -10.839500000000019
ltibia 103.34599999999992
lfoot 6.3586600000000155 -12.346199999999996
ltoes 3.695250000000023
rfemur -17.293100000000006 2.8147799999999985 35.17220000000001
rtibia 47.04809999999996
rfoot -21.21789999999998 -18.620699999999985
rtoes -9.811899999999982
lowerback nan 0.4099570000000006 3.334389999999997
upperback -0.10616299999999801 1.6017000000000001 3.4917100000000034
thorax -10.1928 0.69323 1.4985200000000005
lowerneck -20.1212 -3.60679 -2.10422
upperneck 12.4517 -4.57305 1.67118
head 7.1817 -2.1335 0.3448560000000002
lclavicle -6.261719999999992e-15 1.1927100000000004e-15
lhumerus -55.9034 -11.191299999999996 99.5954
lradius 99.38170000000001
lwrist 30.604999999999997
lhand -26.364799999999995 3.0741800000000006
lfingers nan
lthumb 0.1933859999999985 33.0538
rclavicle -6.261719999999992e-15 1.1927100000000004e-15
rhumerus -38.57429999999998 10.7365 -93.765
rradius 104.983
rwrist -11.383400000000002
rhand -22.007599999999993 nan
rfingers nan
rthumb 4.40145 10.2259
3
root -0.9290820000000007 17.4997 -30.321600000000004 5.286070000000002 0.2593830000000008 -7.012289999999997
lfemur -34.54020000000001 6.248970000000003 -11.123299999999984
ltibia 100.7700000000001
lfoot 4.13552 -10.758099999999992
ltoes -2.9559499999999908
rfemur -12.3615 2.6397600000000025 35.46560000000001
rtibia 44.9846
rfoot -19.016899999999993 -17.16920000000003
rtoes -13.724600000000024
lowerback nan 0.9455080000000002 4.187220000000002
upperback -0.8950729999999999 2.5245499999999987 3.2288000000000014
thorax -11.152699999999996 1.0564099999999994 0.48508300000000043
lowerneck -18.114300000000004 -4.074290000000001 -1.7175599999999998
upperneck 12.450899999999999 -5.301239999999999 1.3894200000000017
head 6.843820000000001 -2.5061400000000003 0.14235900000000057
lclavicle -1.1777999999999987e-14 -5.9635399999999975e-15
lhumerus -59.62220000000001 -12.210799999999999 100.33
lradius 100.84099999999998
lwrist 31.643700000000003
lhand -25.2105 2.54638
lfingers nan
lthumb 1.3082300000000004 32.5221
rclavicle -1.1777999999999987e-14 -5.9635399999999975e-15
rhumerus -40.07089999999998 9.603310000000002 -94.2449
rradius 109.102
rwrist -12.476099999999999
rhand -20.173599999999997 nan
rfingers nan
rthumb 6.172240000000006 9.94042
4
root -0.8917090000000001 17.7129 -29.236499999999992 5.439140000000002 -0.2494600000000019 -7.2864600000000035
lfemur -36.76319999999996 6.873550000000006 -11.887400000000023
ltibia 96.27429999999998
lfoot -0.9779200000000008 -8.212790000000002
ltoes -14.590399999999999
rfemur -7.8174399999999835 3.2997299999999967 35.305800000000005
rtibia 42.61139999999999
rfoot -14.866199999999997 -14.669800000000023
rtoes -18.336199999999984
lowerback nan 1.7602199999999981 4.8316199999999965
upperback -0.6219950000000005 3.580560000000001 3.1084200000000015
thorax -9.75942 1.5522100000000014 -0.23176299999999894
lowerneck -18.9189 -4.441859999999998 -1.95078
upperneck 13.1804 -5.742649999999998 1.415609999999998
head 7.230459999999999 -2.714750000000001 0.11159200000000113
lclavicle 1.913300000000001e-14 3.379339999999999e-14
lhumerus -61.3011 -11.805999999999997 100.389
lradius 101.96000000000001
lwrist 31.841099999999997
lhand -27.5994 1.6659900000000003
lfingers nan
lthumb -0.9990539999999981 31.6434
rclavicle 1.913300000000001e-14 3.379339999999999e-14
rhumerus -39.09659999999998 10.0531 -94.1854
rradius 111.785
rwrist -12.709000000000005
rhand -20.990399999999994 nan
rfingers nan
rthumb 5.38361 11.0372
5
root -0.865733999999999 17.9847 -28.1798000000001 4.971799999999998 0.8585100000000001 -7.071379999999994
lfemur -38.34460000000003 5.4435699999999905 -13.138600000000013
ltibia 90.00430000000003
lfoot 0.7176159999999994 -6.813020000000001
ltoes -4.3523699999999925
rfemur -3.3095100000000244 2.4629999999999983 34.71139999999999
rtibia 39.9151
rfoot -8.798329999999968 -11.239699999999988
rtoes -21.183899999999966
lowerback nan 1.7412500000000009 5.052180000000007
upperback -1.12981 3.648479999999997 3.098240000000002
thorax -10.4276 1.5503699999999991 -0.3951659999999989
lowerneck -18.188500000000005 -4.61103 -2.495180000000001
upperneck 14.1129 -5.866100000000001 1.409940000000003
head 7.43348 -2.8029599999999992 0.1851150000000008
lclavicle -1.0883500000000003e-14 -7.951389999999993e-15
lhumerus -63.69410000000002 -9.768539999999998 100.183
lradius 102.927
lwrist 32.6875
lhand -26.1355 -0.373626
lfingers nan
lthumb 0.414922000000002 29.605700000000002
rclavicle -1.0883500000000003e-14 -7.951389999999993e-15
rhumerus -39.978899999999996 11.1714 -94.2672
rradius 114.212
rwrist -11.502900000000002
rhand -20.314299999999992 nan
rfingers nan
rthumb 6.036329999999998 10.994000000000002
6
root -0.836922000000001 18.2115 -27.114599999999946 4.440759999999999 1.9078800000000022 -6.850119999999995
lfemur -39.00479999999997 3.945579999999994 -14.256199999999993
ltibia 82.67659999999994
lfoot -1.5653999999999968 -4.8271999999999995
ltoes -9.088050000000003
rfemur 0.8283859999999628 1.51529 33.98459999999999
rtibia 36.973799999999976
rfoot 0.04202649999999153 -8.36682
rtoes -20.21760000000004
lowerback nan 1.7965699999999991 5.371309999999991
upperback -1.655799999999999 3.7791200000000034 2.8456799999999984
thorax -10.855 1.5680700000000014 -0.8790570000000039
lowerneck -16.391099999999998 -4.685639999999999 -2.30854
upperneck 14.1149 -6.062190000000001 1.4159399999999969
head 7.127230000000001 -2.9015800000000014 0.17561400000000027
lclavicle 7.702909999999995e-15 3.8961799999999965e-14
lhumerus -66.13549999999998 -7.959179999999985 99.2909
lradius 103.34299999999999
lwrist 34.2542
lhand -25.176 0.7869699999999997
lfingers nan
lthumb 1.3415599999999999 30.7625
rclavicle 7.702909999999995e-15 3.8961799999999965e-14
rhumerus -40.88029999999999 12.014999999999997 -94.7807
rradius 115.47800000000001
rwrist -10.3831
rhand -19.996900000000004 nan
rfingers nan
rthumb 6.342819999999995 11.649500000000002
7
root -0.7902620000000002 18.4744 -25.965399999999995 4.374089999999999 2.774790000000002 -6.17091999999999
lfemur -38.54959999999994 2.453970000000002 -15.725799999999992
ltibia 74.1039
lfoot -2.69818 -3.129940000000001
ltoes -11.419600000000003
rfemur 4.5192899999999625 1.4233700000000007 32.680099999999996
rtibia 33.96590000000006
rfoot 11.849100000000014 -6.947189999999999
rtoes -15.737400000000033
lowerback nan 1.9733099999999981 5.5555100000000035
upperback -1.28093 3.8377499999999984 2.324069999999999
thorax -9.41161 1.6220099999999995 -1.4831899999999987
lowerneck -18.302899999999998 -4.915550000000002 -1.8737399999999997
upperneck 15.1741 -6.462460000000001 1.37803
head 7.79352 -3.0451200000000007 -0.012922600000000006
lclavicle -3.3197000000000035e-14 1.6697900000000022e-14
lhumerus -66.64309999999999 -6.6737100000000105 98.0409
lradius 103.203
lwrist 35.9131
lhand -24.6016 1.2516400000000014
lfingers nan
lthumb 1.8963299999999994 31.223
rclavicle -3.3197000000000035e-14 1.6697900000000022e-14
rhumerus -40.15479999999998 12.851599999999994 -94.8256
rradius 116.30199999999999
rwrist -9.388399999999999
rhand -19.6606 nan
rfingers nan
rthumb 6.66747 11.619100000000001
8
root -0.7514159999999994 18.6367 -24.84560000000006 4.31834 3.266840000000002 -5.591989999999998
lfemur -37.89669999999998 1.1765899999999991 -16.885300000000008
ltibia 64.66770000000002
lfoot -2.1975899999999973 -1.6817700000000082
ltoes -17.5341
rfemur 7.930720000000029 2.647040000000002 31.972400000000004
rtibia 31.527800000000063
rfoot 19.843500000000034 -7.280120000000002
rtoes -5.419290000000018
lowerback nan 2.1905800000000024 5.391869999999993
upperback -1.4899299999999998 3.963250000000002 2.00557
thorax -8.714 1.7050799999999984 -1.6878700000000024
lowerneck -17.312000000000005 -5.080800000000003 -1.97237
upperneck 15.3355 -6.7388400000000015 1.6504999999999983
head 7.69541 -3.163240000000002 0.08101629999999982
lclavicle 1.3517400000000019e-14 1.7890600000000015e-14
lhumerus -68.30630000000004 -5.091409999999998 97.044
lradius 102.81600000000002
lwrist 36.481300000000005
lhand -24.8873 1.7781599999999995
lfingers nan
lthumb 1.6204600000000002 31.7518
rclavicle 1.3517400000000019e-14 1.7890600000000015e-14
rhumerus -40.69329999999999 13.814999999999992 -94.9592
rradius 117.053
rwrist -10.3433
rhand -18.7748 nan
rfingers nan
rthumb 7.522560000000004 17.135499999999986
9
root -0.7170680000000007 18.8249 -23.728900000000046 4.14591 3.6341399999999977 -5.402290000000004
lfemur -36.36109999999998 -0.2738329999999997 -17.281699999999997
ltibia 54.3135
lfoot -0.6923870000000004 -2.16122
ltoes -23.04820000000003
rfemur 10.467800000000011 4.30242 32.14
rtibia 31.038200000000046
rfoot 25.294999999999987 -6.56809
rtoes 3.90273
lowerback nan 2.2551300000000003 5.491429999999994
upperback -1.910680000000001 4.025280000000004 1.79411
thorax -8.79128 1.7173000000000012 -1.959169999999995
lowerneck -16.957999999999995 -5.176670000000001 -1.7833699999999995
upperneck 16.2048 -6.944029999999997 1.6143799999999981
head 7.91848 -3.2467000000000015 0.010837699999998618
lclavicle -2.015180000000003e-14 -1.3517399999999959e-14
lhumerus -70.1318 -3.6051000000000037 95.9428
lradius 102.553
lwrist 35.7123
lhand -24.0709 0.9889559999999984
lfingers nan
lthumb 2.4088599999999984 30.9551
rclavicle -2.015180000000003e-14 -1.3517399999999959e-14
rhumerus -41.814400000000006 15.22290000000001 -95.641
rradius 117.65200000000002
rwrist -10.8153
rhand -17.3512 nan
rfingers nan
rthumb 8.89649 13.533200000000004
